<svg width="35" height="35" viewBox="0 0 35 35" fill="none" xmlns="http://www.w3.org/2000/svg">
<path fill-rule="evenodd" clip-rule="evenodd" d="M5 17.5C5 10.5357 10.5357 5 17.5 5C24.4643 5 30 10.5357 30 17.5C30 24.4643 24.4643 30 17.5 30C10.5357 30 5 24.4643 5 17.5ZM6.78571 17.5C6.78571 23.3929 11.6071 28.2143 17.5 28.2143C23.3929 28.2143 28.2143 23.3929 28.2143 17.5C28.2143 11.6071 23.3929 6.78571 17.5 6.78571C11.6071 6.78571 6.78571 11.6071 6.78571 17.5ZM21.6143 23.0429C22.0048 23.4334 22.638 23.4334 23.0285 23.0429L23.0429 23.0285C23.4334 22.638 23.4334 22.0048 23.0429 21.6143L18.9286 17.5L23.0429 13.3857C23.4334 12.9952 23.4334 12.362 23.0429 11.9715L23.0285 11.9571C22.638 11.5666 22.0048 11.5666 21.6143 11.9571L17.5 16.0714L13.3857 11.9571C12.9952 11.5666 12.362 11.5666 11.9715 11.9571L11.9571 11.9715C11.5666 12.362 11.5666 12.9952 11.9571 13.3857L16.0714 17.5L11.9571 21.6143C11.5666 22.0048 11.5666 22.638 11.9571 23.0285L11.9715 23.0429C12.362 23.4334 12.9952 23.4334 13.3857 23.0429L17.5 18.9286L21.6143 23.0429Z" fill="#495151"/>
<path d="M23.0285 23.0429L22.8518 22.8661L22.8518 22.8661L23.0285 23.0429ZM21.6143 23.0429L21.7911 22.8661L21.7911 22.8661L21.6143 23.0429ZM23.0429 23.0285L22.8661 22.8518L22.8661 22.8518L23.0429 23.0285ZM23.0429 21.6143L22.8661 21.7911L22.8661 21.7911L23.0429 21.6143ZM18.9286 17.5L18.7518 17.3232L18.575 17.5L18.7518 17.6768L18.9286 17.5ZM23.0429 13.3857L22.8661 13.2089L22.8661 13.2089L23.0429 13.3857ZM23.0429 11.9715L22.8661 12.1482L22.8661 12.1482L23.0429 11.9715ZM23.0285 11.9571L22.8518 12.1339L22.8518 12.1339L23.0285 11.9571ZM21.6143 11.9571L21.7911 12.1339L21.7911 12.1339L21.6143 11.9571ZM17.5 16.0714L17.3232 16.2482L17.5 16.425L17.6768 16.2482L17.5 16.0714ZM11.9571 13.3857L11.7803 13.5625L11.7803 13.5625L11.9571 13.3857ZM16.0714 17.5L16.2482 17.6768L16.425 17.5L16.2482 17.3232L16.0714 17.5ZM11.9571 21.6143L12.1339 21.7911L12.1339 21.7911L11.9571 21.6143ZM11.9571 23.0285L12.1339 22.8518L12.1339 22.8518L11.9571 23.0285ZM11.9715 23.0429L12.1482 22.8661L12.1482 22.8661L11.9715 23.0429ZM13.3857 23.0429L13.2089 22.8661L13.2089 22.8661L13.3857 23.0429ZM17.5 18.9286L17.6768 18.7518L17.5 18.575L17.3232 18.7518L17.5 18.9286ZM17.5 4.75C10.3976 4.75 4.75 10.3976 4.75 17.5H5.25C5.25 10.6738 10.6738 5.25 17.5 5.25V4.75ZM30.25 17.5C30.25 10.3976 24.6024 4.75 17.5 4.75V5.25C24.3262 5.25 29.75 10.6738 29.75 17.5H30.25ZM17.5 30.25C24.6024 30.25 30.25 24.6024 30.25 17.5H29.75C29.75 24.3262 24.3262 29.75 17.5 29.75V30.25ZM4.75 17.5C4.75 24.6024 10.3976 30.25 17.5 30.25V29.75C10.6738 29.75 5.25 24.3262 5.25 17.5H4.75ZM17.5 27.9643C11.7452 27.9643 7.03571 23.2548 7.03571 17.5H6.53571C6.53571 23.5309 11.4691 28.4643 17.5 28.4643V27.9643ZM27.9643 17.5C27.9643 23.2548 23.2548 27.9643 17.5 27.9643V28.4643C23.5309 28.4643 28.4643 23.5309 28.4643 17.5H27.9643ZM17.5 7.03571C23.2548 7.03571 27.9643 11.7452 27.9643 17.5H28.4643C28.4643 11.4691 23.5309 6.53571 17.5 6.53571V7.03571ZM7.03571 17.5C7.03571 11.7452 11.7452 7.03571 17.5 7.03571V6.53571C11.4691 6.53571 6.53571 11.4691 6.53571 17.5H7.03571ZM22.8518 22.8661C22.5589 23.159 22.084 23.159 21.7911 22.8661L21.4375 23.2197C21.9257 23.7078 22.7172 23.7078 23.2053 23.2197L22.8518 22.8661ZM22.8661 22.8518L22.8518 22.8661L23.2053 23.2197L23.2197 23.2053L22.8661 22.8518ZM22.8661 21.7911C23.159 22.084 23.159 22.5589 22.8661 22.8518L23.2197 23.2053C23.7078 22.7172 23.7078 21.9257 23.2197 21.4375L22.8661 21.7911ZM18.7518 17.6768L22.8661 21.7911L23.2197 21.4375L19.1053 17.3232L18.7518 17.6768ZM22.8661 13.2089L18.7518 17.3232L19.1053 17.6768L23.2197 13.5625L22.8661 13.2089ZM22.8661 12.1482C23.159 12.4411 23.159 12.916 22.8661 13.2089L23.2197 13.5625C23.7078 13.0743 23.7078 12.2828 23.2197 11.7947L22.8661 12.1482ZM22.8518 12.1339L22.8661 12.1482L23.2197 11.7947L23.2053 11.7803L22.8518 12.1339ZM21.7911 12.1339C22.084 11.841 22.5589 11.841 22.8518 12.1339L23.2053 11.7803C22.7172 11.2922 21.9257 11.2922 21.4375 11.7803L21.7911 12.1339ZM17.6768 16.2482L21.7911 12.1339L21.4375 11.7803L17.3232 15.8947L17.6768 16.2482ZM13.2089 12.1339L17.3232 16.2482L17.6768 15.8947L13.5625 11.7803L13.2089 12.1339ZM12.1482 12.1339C12.4411 11.841 12.916 11.841 13.2089 12.1339L13.5625 11.7803C13.0743 11.2922 12.2828 11.2922 11.7947 11.7803L12.1482 12.1339ZM12.1339 12.1482L12.1482 12.1339L11.7947 11.7803L11.7803 11.7947L12.1339 12.1482ZM12.1339 13.2089C11.841 12.916 11.841 12.4411 12.1339 12.1482L11.7803 11.7947C11.2922 12.2828 11.2922 13.0743 11.7803 13.5625L12.1339 13.2089ZM16.2482 17.3232L12.1339 13.2089L11.7803 13.5625L15.8947 17.6768L16.2482 17.3232ZM12.1339 21.7911L16.2482 17.6768L15.8947 17.3232L11.7803 21.4375L12.1339 21.7911ZM12.1339 22.8518C11.841 22.5589 11.841 22.084 12.1339 21.7911L11.7803 21.4375C11.2922 21.9257 11.2922 22.7172 11.7803 23.2053L12.1339 22.8518ZM12.1482 22.8661L12.1339 22.8518L11.7803 23.2053L11.7947 23.2197L12.1482 22.8661ZM13.2089 22.8661C12.916 23.159 12.4411 23.159 12.1482 22.8661L11.7947 23.2197C12.2828 23.7078 13.0743 23.7078 13.5625 23.2197L13.2089 22.8661ZM17.3232 18.7518L13.2089 22.8661L13.5625 23.2197L17.6768 19.1053L17.3232 18.7518ZM21.7911 22.8661L17.6768 18.7518L17.3232 19.1053L21.4375 23.2197L21.7911 22.8661Z" fill="#495151"/>
</svg>
