<svg width="8" height="8" viewBox="0 0 8 8" fill="none" xmlns="http://www.w3.org/2000/svg">
<path d="M5.02503 4.00032L7.59503 1.43032C7.7218 1.29214 7.7903 1.11033 7.78624 0.922852C7.78218 0.735372 7.70585 0.556706 7.57321 0.42415C7.44057 0.291593 7.26185 0.215389 7.07437 0.211446C6.88689 0.207503 6.70513 0.276124 6.56703 0.402987L6.56769 0.40232L3.99769 2.97232L1.42769 0.40232C1.28951 0.275547 1.10771 0.207044 0.920227 0.211109C0.732747 0.215174 0.554081 0.291493 0.421524 0.424136C0.288967 0.556778 0.212764 0.735494 0.208821 0.922977C0.204878 1.11046 0.273499 1.29222 0.400361 1.43032L0.399695 1.42965L2.9697 3.99965L0.399695 6.56965C0.327386 6.63599 0.269249 6.71628 0.228783 6.80567C0.188318 6.89507 0.166361 6.99173 0.164233 7.08984C0.162106 7.18794 0.179853 7.28547 0.216406 7.37653C0.252959 7.4676 0.307562 7.55033 0.376927 7.61974C0.446292 7.68915 0.528986 7.74381 0.620029 7.78042C0.711072 7.81703 0.808583 7.83484 0.906691 7.83278C1.0048 7.83071 1.10147 7.80882 1.1909 7.76841C1.28032 7.728 1.36064 7.66992 1.42703 7.59765L1.42769 7.59699L3.99769 5.02699L6.56769 7.59699C6.63403 7.6693 6.71432 7.72743 6.80371 7.7679C6.89311 7.80836 6.98977 7.83032 7.08788 7.83245C7.18599 7.83458 7.28351 7.81683 7.37458 7.78028C7.46564 7.74372 7.54837 7.68912 7.61778 7.61976C7.68719 7.55039 7.74185 7.4677 7.77846 7.37665C7.81507 7.28561 7.83288 7.1881 7.83082 7.08999C7.82875 6.99188 7.80686 6.89521 7.76645 6.80579C7.72605 6.71636 7.66796 6.63604 7.59569 6.56965L7.59503 6.56899L5.02503 4.00032Z" fill="#495151"/>
</svg>
