<svg width="35" height="35" viewBox="0 0 35 35" fill="none" xmlns="http://www.w3.org/2000/svg">
<path d="M20.0017 31.0152C19.4494 31.0152 19.0017 30.5675 19.0017 30.0152V16.9983C19.0017 16.446 19.4494 15.9983 20.0017 15.9983H30.0152C30.5675 15.9983 31.0152 16.446 31.0152 16.9983V30.0152C31.0152 30.5675 30.5675 31.0152 30.0152 31.0152H20.0017ZM4.9848 19.0017C4.43252 19.0017 3.9848 18.554 3.9848 18.0017V4.9848C3.9848 4.43252 4.43252 3.9848 4.9848 3.9848H14.9983C15.5506 3.9848 15.9983 4.43252 15.9983 4.9848V18.0017C15.9983 18.554 15.5506 19.0017 14.9983 19.0017H4.9848ZM11.9949 15.9983C12.5472 15.9983 12.9949 15.5506 12.9949 14.9983V7.98818C12.9949 7.4359 12.5472 6.98818 11.9949 6.98818H7.98818C7.4359 6.98818 6.98818 7.4359 6.98818 7.98818V14.9983C6.98818 15.5506 7.4359 15.9983 7.98818 15.9983H11.9949ZM4.9848 31.0152C4.43252 31.0152 3.9848 30.5675 3.9848 30.0152V23.0051C3.9848 22.4528 4.43252 22.0051 4.9848 22.0051H14.9983C15.5506 22.0051 15.9983 22.4528 15.9983 23.0051V30.0152C15.9983 30.5675 15.5506 31.0152 14.9983 31.0152H4.9848ZM6.98818 27.0118C6.98818 27.5641 7.4359 28.0118 7.98818 28.0118H11.9949C12.5472 28.0118 12.9949 27.5641 12.9949 27.0118V26.0085C12.9949 25.4562 12.5472 25.0085 11.9949 25.0085H7.98818C7.4359 25.0085 6.98818 25.4562 6.98818 26.0085V27.0118ZM22.0051 27.0118C22.0051 27.5641 22.4528 28.0118 23.0051 28.0118H27.0118C27.5641 28.0118 28.0118 27.5641 28.0118 27.0118V20.0017C28.0118 19.4494 27.5641 19.0017 27.0118 19.0017H23.0051C22.4528 19.0017 22.0051 19.4494 22.0051 20.0017V27.0118ZM19.0017 4.9848C19.0017 4.43252 19.4494 3.9848 20.0017 3.9848H30.0152C30.5675 3.9848 31.0152 4.43252 31.0152 4.9848V11.9949C31.0152 12.5472 30.5675 12.9949 30.0152 12.9949H20.0017C19.4494 12.9949 19.0017 12.5472 19.0017 11.9949V4.9848ZM23.0051 6.98818C22.4528 6.98818 22.0051 7.4359 22.0051 7.98818V8.99156C22.0051 9.54384 22.4528 9.99156 23.0051 9.99156H27.0118C27.5641 9.99156 28.0118 9.54384 28.0118 8.99156V7.98818C28.0118 7.4359 27.5641 6.98818 27.0118 6.98818H23.0051Z" fill="#495151"/>
</svg>
