<svg width="35" height="35" viewBox="0 0 35 35" fill="none" xmlns="http://www.w3.org/2000/svg">
<path d="M15.4959 4.50151C16.7356 3.78379 18.2644 3.78378 19.5042 4.50151L27.7322 9.26511C28.9675 9.98027 29.7281 11.2995 29.7281 12.7268V22.2732C29.7281 23.7005 28.9675 25.0197 27.7322 25.7349L19.5042 30.4985C18.2645 31.2162 16.7356 31.2162 15.4959 30.4985L7.26783 25.7349C6.03256 25.0197 5.27197 23.7005 5.27197 22.2732V12.7268C5.27197 11.2995 6.03256 9.98027 7.26783 9.26511L15.4959 4.50151ZM19.5041 7.47609C18.2644 6.75839 16.7356 6.75839 15.4959 7.47609L9.84219 10.7492C8.6069 11.4644 7.8463 12.7836 7.8463 14.2109V20.7891C7.8463 22.2164 8.6069 23.5356 9.84219 24.2508L15.4959 27.5239C16.7356 28.2416 18.2644 28.2416 19.5041 27.5239L25.1578 24.2508C26.3931 23.5356 27.1537 22.2164 27.1537 20.7891V14.2109C27.1537 12.7836 26.3931 11.4644 25.1578 10.7492L19.5041 7.47609ZM17.5 22.6486C16.1345 22.6486 14.8249 22.1062 13.8594 21.1406C12.8938 20.1751 12.3514 18.8655 12.3514 17.5C12.3514 16.1345 12.8938 14.8249 13.8594 13.8594C14.8249 12.8938 16.1345 12.3514 17.5 12.3514C18.8655 12.3514 20.1751 12.8938 21.1407 13.8594C22.1062 14.8249 22.6487 16.1345 22.6487 17.5C22.6487 18.8655 22.1062 20.1751 21.1407 21.1406C20.1751 22.1062 18.8655 22.6486 17.5 22.6486ZM17.5 20.0743C18.1828 20.0743 18.8376 19.8031 19.3203 19.3203C19.8031 18.8375 20.0743 18.1828 20.0743 17.5C20.0743 16.8172 19.8031 16.1625 19.3203 15.6797C18.8376 15.1969 18.1828 14.9257 17.5 14.9257C16.8173 14.9257 16.1625 15.1969 15.6797 15.6797C15.1969 16.1625 14.9257 16.8172 14.9257 17.5C14.9257 18.1828 15.1969 18.8375 15.6797 19.3203C16.1625 19.8031 16.8173 20.0743 17.5 20.0743Z" fill="#495151"/>
</svg>
