<svg width="35" height="35" viewBox="0 0 35 35" fill="none" xmlns="http://www.w3.org/2000/svg">
<path d="M17.5 30.3716C10.391 30.3716 4.62839 24.609 4.62839 17.5C4.62839 10.391 10.391 4.62838 17.5 4.62838C24.609 4.62838 30.3716 10.391 30.3716 17.5C30.3716 24.609 24.609 30.3716 17.5 30.3716ZM17.5 27.7973C20.231 27.7973 22.8502 26.7124 24.7813 24.7813C26.7124 22.8502 27.7973 20.231 27.7973 17.5C27.7973 14.769 26.7124 12.1498 24.7813 10.2187C22.8502 8.2876 20.231 7.2027 17.5 7.2027C14.769 7.2027 12.1498 8.2876 10.2187 10.2187C8.2876 12.1498 7.20271 14.769 7.20271 17.5C7.20271 20.231 8.2876 22.8502 10.2187 24.7813C12.1498 26.7124 14.769 27.7973 17.5 27.7973ZM16.2128 22.3615C16.2128 21.8092 16.6606 21.3615 17.2128 21.3615H17.7872C18.3395 21.3615 18.7872 21.8092 18.7872 22.3615V22.9358C18.7872 23.4881 18.3395 23.9358 17.7872 23.9358H17.2128C16.6606 23.9358 16.2128 23.4881 16.2128 22.9358V22.3615ZM19.1226 19.1296C18.9264 19.2053 18.7872 19.3883 18.7872 19.5987C18.7872 19.8614 18.5742 20.0743 18.3115 20.0743H17.2128C16.6606 20.0743 16.2128 19.6266 16.2128 19.0743V18.1436C16.2128 17.8022 16.3485 17.4748 16.5898 17.2334C16.8312 16.992 17.1586 16.8564 17.5 16.8564C17.8657 16.8564 18.2238 16.7525 18.5327 16.5569C18.8417 16.3613 19.0887 16.082 19.2451 15.7515C19.4015 15.421 19.4608 15.0528 19.4162 14.6899C19.3715 14.327 19.2247 13.9842 18.9929 13.7015C18.7611 13.4187 18.4537 13.2076 18.1065 13.0927C17.7594 12.9778 17.3868 12.9639 17.032 13.0525C16.6773 13.1411 16.355 13.3286 16.1026 13.5932C16.0821 13.6148 16.062 13.6368 16.0425 13.6592C15.6802 14.0762 15.1674 14.4593 14.6257 14.3508L14.0615 14.2378C13.52 14.1293 13.1592 13.5951 13.384 13.0907C13.5709 12.6715 13.8216 12.2814 14.1288 11.9351C14.6584 11.3381 15.337 10.8925 16.0952 10.6437C16.8534 10.3949 17.6641 10.352 18.4444 10.5192C19.2247 10.6865 19.9465 11.0579 20.5362 11.5956C21.1259 12.1332 21.5622 12.8178 21.8006 13.5794C22.0389 14.3409 22.0708 15.1521 21.8929 15.9301C21.715 16.708 21.3338 17.4247 20.7881 18.007C20.3234 18.5028 19.7538 18.886 19.1226 19.1296Z" fill="#495151"/>
</svg>
