<svg width="35" height="35" viewBox="0 0 35 35" fill="none" xmlns="http://www.w3.org/2000/svg">
<path d="M9.99155 27.1537C9.99155 26.5613 10.4718 26.0811 11.0642 26.0811H23.9358C24.5282 26.0811 25.0084 26.5613 25.0084 27.1537C25.0084 27.7461 24.5282 28.2264 23.9358 28.2264H11.0642C10.4718 28.2264 9.99155 27.7461 9.99155 27.1537ZM17.5 23.9358C15.2242 23.9358 13.0415 23.0317 11.4323 21.4225C9.82299 19.8132 8.91891 17.6306 8.91891 15.3547C8.91891 13.0789 9.82299 10.8963 11.4323 9.28699C13.0415 7.67772 15.2242 6.77365 17.5 6.77365C19.7758 6.77365 21.9585 7.67772 23.5677 9.28699C25.177 10.8963 26.0811 13.0789 26.0811 15.3547C26.0811 17.6306 25.177 19.8132 23.5677 21.4225C21.9585 23.0317 19.7758 23.9358 17.5 23.9358Z" fill="#495151"/>
</svg>
