<svg width="35" height="35" viewBox="0 0 35 35" fill="none" xmlns="http://www.w3.org/2000/svg">
<path fill-rule="evenodd" clip-rule="evenodd" d="M2.87833 25.6355C2.06745 25.6355 1.4101 26.2929 1.4101 27.1038C1.4101 27.9147 2.06745 28.572 2.87833 28.572H10.2195C11.0304 28.572 11.6877 27.9147 11.6877 27.1038C11.6877 26.2929 11.0304 25.6355 10.2195 25.6355H2.87833ZM2.87833 15.3579C2.06745 15.3579 1.4101 16.0153 1.4101 16.8261C1.4101 17.637 2.06745 18.2944 2.87833 18.2944H13.156C13.9669 18.2944 14.6242 17.637 14.6242 16.8261C14.6242 16.0153 13.9669 15.3579 13.156 15.3579H2.87833ZM2.87833 5.08026C2.06745 5.08026 1.4101 5.73761 1.4101 6.5485C1.4101 7.35938 2.06745 8.01673 2.87833 8.01673H29.3066C30.1174 8.01673 30.7748 7.35938 30.7748 6.5485C30.7748 5.73761 30.1174 5.08026 29.3066 5.08026H2.87833ZM17.684 21.9668C17.684 26.3592 21.2446 29.9197 25.637 29.9197C30.0294 29.9197 33.5899 26.3592 33.5899 21.9668C33.5899 17.5744 30.0294 14.0139 25.637 14.0139C21.2446 14.0139 17.684 17.5744 17.684 21.9668ZM24.8417 25.9433V24.3527H26.4323V25.9433H24.8417ZM26.907 22.8521C26.6365 22.9919 26.4323 23.2528 26.4323 23.5574H24.8417V22.3644C24.8417 22.1535 24.9255 21.9512 25.0746 21.8021C25.2237 21.6529 25.426 21.5691 25.637 21.5691C25.8629 21.5691 26.0842 21.505 26.275 21.3841C26.4659 21.2632 26.6186 21.0907 26.7152 20.8865C26.8118 20.6822 26.8485 20.4548 26.8209 20.2305C26.7933 20.0063 26.7026 19.7945 26.5594 19.6198C26.4161 19.4451 26.2262 19.3147 26.0117 19.2437C25.7972 19.1727 25.567 19.1641 25.3478 19.2188C25.1286 19.2736 24.9295 19.3894 24.7736 19.5529C24.517 19.822 24.1715 20.0832 23.8069 20.0102L23.6868 19.9861C23.256 19.8998 22.9674 19.4715 23.1716 19.0825C23.3439 18.7544 23.5813 18.4616 23.872 18.2233C24.3698 17.8155 24.9935 17.5926 25.637 17.5927C26.3045 17.5947 26.9491 17.8364 27.4534 18.2738C27.9577 18.7112 28.2881 19.3152 28.3845 19.9757C28.4809 20.6363 28.3368 21.3095 27.9784 21.8727C27.7125 22.2907 27.3418 22.6275 26.907 22.8521Z" fill="#495151"/>
</svg>
